<svg width="64" height="64" viewBox="0 0 64 64" fill="none" xmlns="http://www.w3.org/2000/svg">
<rect width="64" height="64" rx="9" fill="white"/>
<path d="M53.7743 53.1201C53.6257 53.3877 53.412 53.6099 53.1547 53.7643C52.8973 53.9188 52.6054 54.0001 52.3083 54H11.6907C11.3937 53.9997 11.1021 53.9181 10.8451 53.7636C10.588 53.609 10.3746 53.3868 10.2263 53.1193C10.078 52.8519 9.99992 52.5485 10 52.2398C10.0001 51.931 10.0783 51.6277 10.2267 51.3604C13.4486 45.5685 18.4137 41.4155 24.2081 39.4468C21.3419 37.6726 19.1151 34.9692 17.8696 31.7518C16.6241 28.5343 16.4287 24.9807 17.3135 21.6366C18.1984 18.2925 20.1144 15.3429 22.7675 13.2407C25.4205 11.1385 28.6639 10 31.9995 10C35.335 10 38.5784 11.1385 41.2315 13.2407C43.8845 15.3429 45.8006 18.2925 46.6854 21.6366C47.5702 24.9807 47.3749 28.5343 46.1294 31.7518C44.8838 34.9692 42.657 37.6726 39.7909 39.4468C45.5852 41.4155 50.5503 45.5685 53.7722 51.3604C53.9211 51.6277 53.9996 51.931 54 52.2399C54.0004 52.5488 53.9225 52.8524 53.7743 53.1201Z" fill="black"/>
</svg>
